<mxfile host="app.diagrams.net" modified="2024-06-21T13:49:50.880Z" agent="Mozilla/5.0 (Windows NT 10.0; Win64; x64) AppleWebKit/537.36 (KHTML, like Gecko) Chrome/126.0.0.0 Safari/537.36" etag="SoFZUVuGHcYqBDkxsFa5" version="24.6.0" type="device">
  <diagram name="Página-1" id="sULU3iYHnRQg7r0w8pIC">
    <mxGraphModel dx="1618" dy="2255" grid="1" gridSize="10" guides="1" tooltips="1" connect="1" arrows="1" fold="1" page="1" pageScale="1" pageWidth="827" pageHeight="1169" math="0" shadow="0">
      <root>
        <mxCell id="0" />
        <mxCell id="1" parent="0" />
        <mxCell id="OIChv7xVEnuI4K587YhU-114" value="" style="group;shadow=1;" parent="1" vertex="1" connectable="0">
          <mxGeometry x="-810" y="-1110" width="300" height="615" as="geometry" />
        </mxCell>
        <mxCell id="OIChv7xVEnuI4K587YhU-115" value="" style="rounded=1;whiteSpace=wrap;html=1;fillColor=#dae8fc;strokeColor=#6c8ebf;" parent="OIChv7xVEnuI4K587YhU-114" vertex="1">
          <mxGeometry width="300" height="615" as="geometry" />
        </mxCell>
        <mxCell id="OIChv7xVEnuI4K587YhU-116" value="Início" style="ellipse;whiteSpace=wrap;html=1;" parent="OIChv7xVEnuI4K587YhU-114" vertex="1">
          <mxGeometry x="65" y="45" width="170" height="70" as="geometry" />
        </mxCell>
        <mxCell id="OIChv7xVEnuI4K587YhU-164" value="Pedido" style="rounded=0;whiteSpace=wrap;html=1;shadow=1;" parent="OIChv7xVEnuI4K587YhU-114" vertex="1">
          <mxGeometry x="85" y="485" width="130" height="20" as="geometry" />
        </mxCell>
        <mxCell id="OIChv7xVEnuI4K587YhU-165" value="Matéria-prima" style="rounded=0;whiteSpace=wrap;html=1;shadow=1;" parent="OIChv7xVEnuI4K587YhU-114" vertex="1">
          <mxGeometry x="85" y="405" width="130" height="20" as="geometry" />
        </mxCell>
        <mxCell id="OIChv7xVEnuI4K587YhU-166" value="Setores" style="rounded=0;whiteSpace=wrap;html=1;shadow=1;" parent="OIChv7xVEnuI4K587YhU-114" vertex="1">
          <mxGeometry x="85" y="445" width="130" height="20" as="geometry" />
        </mxCell>
        <mxCell id="OIChv7xVEnuI4K587YhU-167" value="Fornecedor" style="rounded=0;whiteSpace=wrap;html=1;shadow=1;" parent="OIChv7xVEnuI4K587YhU-114" vertex="1">
          <mxGeometry x="85" y="365" width="130" height="20" as="geometry" />
        </mxCell>
        <mxCell id="OIChv7xVEnuI4K587YhU-170" value="Cliente" style="rounded=0;whiteSpace=wrap;html=1;shadow=1;" parent="OIChv7xVEnuI4K587YhU-114" vertex="1">
          <mxGeometry x="85" y="325" width="130" height="20" as="geometry" />
        </mxCell>
        <mxCell id="pX-VzG0IlggwM3JUz6iu-1" value="" style="rounded=1;whiteSpace=wrap;html=1;fillColor=#dae8fc;strokeColor=#6c8ebf;" vertex="1" parent="1">
          <mxGeometry x="-480" y="-1110" width="300" height="615" as="geometry" />
        </mxCell>
        <mxCell id="pX-VzG0IlggwM3JUz6iu-10" value="Matéria-prima" style="ellipse;whiteSpace=wrap;html=1;" vertex="1" parent="1">
          <mxGeometry x="-415" y="-1055" width="170" height="70" as="geometry" />
        </mxCell>
        <mxCell id="pX-VzG0IlggwM3JUz6iu-11" value="" style="shape=table;startSize=0;container=1;collapsible=0;childLayout=tableLayout;fontSize=16;" vertex="1" parent="1">
          <mxGeometry x="-460" y="-880" width="250" height="80" as="geometry" />
        </mxCell>
        <mxCell id="pX-VzG0IlggwM3JUz6iu-12" value="" style="shape=tableRow;horizontal=0;startSize=0;swimlaneHead=0;swimlaneBody=0;strokeColor=inherit;top=0;left=0;bottom=0;right=0;collapsible=0;dropTarget=0;fillColor=none;points=[[0,0.5],[1,0.5]];portConstraint=eastwest;fontSize=16;" vertex="1" parent="pX-VzG0IlggwM3JUz6iu-11">
          <mxGeometry width="250" height="29" as="geometry" />
        </mxCell>
        <mxCell id="pX-VzG0IlggwM3JUz6iu-13" value="Quant" style="shape=partialRectangle;html=1;whiteSpace=wrap;connectable=0;strokeColor=inherit;overflow=hidden;fillColor=none;top=0;left=0;bottom=0;right=0;pointerEvents=1;fontSize=16;" vertex="1" parent="pX-VzG0IlggwM3JUz6iu-12">
          <mxGeometry width="83" height="29" as="geometry">
            <mxRectangle width="83" height="29" as="alternateBounds" />
          </mxGeometry>
        </mxCell>
        <mxCell id="pX-VzG0IlggwM3JUz6iu-14" value="materia-p" style="shape=partialRectangle;html=1;whiteSpace=wrap;connectable=0;strokeColor=inherit;overflow=hidden;fillColor=none;top=0;left=0;bottom=0;right=0;pointerEvents=1;fontSize=16;" vertex="1" parent="pX-VzG0IlggwM3JUz6iu-12">
          <mxGeometry x="83" width="84" height="29" as="geometry">
            <mxRectangle width="84" height="29" as="alternateBounds" />
          </mxGeometry>
        </mxCell>
        <mxCell id="pX-VzG0IlggwM3JUz6iu-15" value="Num de op" style="shape=partialRectangle;html=1;whiteSpace=wrap;connectable=0;strokeColor=inherit;overflow=hidden;fillColor=none;top=0;left=0;bottom=0;right=0;pointerEvents=1;fontSize=16;" vertex="1" parent="pX-VzG0IlggwM3JUz6iu-12">
          <mxGeometry x="167" width="83" height="29" as="geometry">
            <mxRectangle width="83" height="29" as="alternateBounds" />
          </mxGeometry>
        </mxCell>
        <mxCell id="pX-VzG0IlggwM3JUz6iu-16" value="" style="shape=tableRow;horizontal=0;startSize=0;swimlaneHead=0;swimlaneBody=0;strokeColor=inherit;top=0;left=0;bottom=0;right=0;collapsible=0;dropTarget=0;fillColor=none;points=[[0,0.5],[1,0.5]];portConstraint=eastwest;fontSize=16;" vertex="1" parent="pX-VzG0IlggwM3JUz6iu-11">
          <mxGeometry y="29" width="250" height="21" as="geometry" />
        </mxCell>
        <mxCell id="pX-VzG0IlggwM3JUz6iu-17" value="" style="shape=partialRectangle;html=1;whiteSpace=wrap;connectable=0;strokeColor=inherit;overflow=hidden;fillColor=none;top=0;left=0;bottom=0;right=0;pointerEvents=1;fontSize=16;" vertex="1" parent="pX-VzG0IlggwM3JUz6iu-16">
          <mxGeometry width="83" height="21" as="geometry">
            <mxRectangle width="83" height="21" as="alternateBounds" />
          </mxGeometry>
        </mxCell>
        <mxCell id="pX-VzG0IlggwM3JUz6iu-18" value="" style="shape=partialRectangle;html=1;whiteSpace=wrap;connectable=0;strokeColor=inherit;overflow=hidden;fillColor=none;top=0;left=0;bottom=0;right=0;pointerEvents=1;fontSize=16;" vertex="1" parent="pX-VzG0IlggwM3JUz6iu-16">
          <mxGeometry x="83" width="84" height="21" as="geometry">
            <mxRectangle width="84" height="21" as="alternateBounds" />
          </mxGeometry>
        </mxCell>
        <mxCell id="pX-VzG0IlggwM3JUz6iu-19" value="" style="shape=partialRectangle;html=1;whiteSpace=wrap;connectable=0;strokeColor=inherit;overflow=hidden;fillColor=none;top=0;left=0;bottom=0;right=0;pointerEvents=1;fontSize=16;" vertex="1" parent="pX-VzG0IlggwM3JUz6iu-16">
          <mxGeometry x="167" width="83" height="21" as="geometry">
            <mxRectangle width="83" height="21" as="alternateBounds" />
          </mxGeometry>
        </mxCell>
        <mxCell id="pX-VzG0IlggwM3JUz6iu-20" value="" style="shape=tableRow;horizontal=0;startSize=0;swimlaneHead=0;swimlaneBody=0;strokeColor=inherit;top=0;left=0;bottom=0;right=0;collapsible=0;dropTarget=0;fillColor=none;points=[[0,0.5],[1,0.5]];portConstraint=eastwest;fontSize=16;" vertex="1" parent="pX-VzG0IlggwM3JUz6iu-11">
          <mxGeometry y="50" width="250" height="30" as="geometry" />
        </mxCell>
        <mxCell id="pX-VzG0IlggwM3JUz6iu-21" value="" style="shape=partialRectangle;html=1;whiteSpace=wrap;connectable=0;strokeColor=inherit;overflow=hidden;fillColor=none;top=0;left=0;bottom=0;right=0;pointerEvents=1;fontSize=16;" vertex="1" parent="pX-VzG0IlggwM3JUz6iu-20">
          <mxGeometry width="83" height="30" as="geometry">
            <mxRectangle width="83" height="30" as="alternateBounds" />
          </mxGeometry>
        </mxCell>
        <mxCell id="pX-VzG0IlggwM3JUz6iu-22" value="" style="shape=partialRectangle;html=1;whiteSpace=wrap;connectable=0;strokeColor=inherit;overflow=hidden;fillColor=none;top=0;left=0;bottom=0;right=0;pointerEvents=1;fontSize=16;" vertex="1" parent="pX-VzG0IlggwM3JUz6iu-20">
          <mxGeometry x="83" width="84" height="30" as="geometry">
            <mxRectangle width="84" height="30" as="alternateBounds" />
          </mxGeometry>
        </mxCell>
        <mxCell id="pX-VzG0IlggwM3JUz6iu-23" value="" style="shape=partialRectangle;html=1;whiteSpace=wrap;connectable=0;strokeColor=inherit;overflow=hidden;fillColor=none;top=0;left=0;bottom=0;right=0;pointerEvents=1;fontSize=16;" vertex="1" parent="pX-VzG0IlggwM3JUz6iu-20">
          <mxGeometry x="167" width="83" height="30" as="geometry">
            <mxRectangle width="83" height="30" as="alternateBounds" />
          </mxGeometry>
        </mxCell>
        <mxCell id="pX-VzG0IlggwM3JUz6iu-24" value="" style="shape=table;startSize=0;container=1;collapsible=0;childLayout=tableLayout;fontSize=16;" vertex="1" parent="1">
          <mxGeometry x="-460" y="-800" width="250" height="90" as="geometry" />
        </mxCell>
        <mxCell id="pX-VzG0IlggwM3JUz6iu-25" value="" style="shape=tableRow;horizontal=0;startSize=0;swimlaneHead=0;swimlaneBody=0;strokeColor=inherit;top=0;left=0;bottom=0;right=0;collapsible=0;dropTarget=0;fillColor=none;points=[[0,0.5],[1,0.5]];portConstraint=eastwest;fontSize=16;" vertex="1" parent="pX-VzG0IlggwM3JUz6iu-24">
          <mxGeometry width="250" height="29" as="geometry" />
        </mxCell>
        <mxCell id="pX-VzG0IlggwM3JUz6iu-26" value="" style="shape=partialRectangle;html=1;whiteSpace=wrap;connectable=0;strokeColor=inherit;overflow=hidden;fillColor=none;top=0;left=0;bottom=0;right=0;pointerEvents=1;fontSize=16;" vertex="1" parent="pX-VzG0IlggwM3JUz6iu-25">
          <mxGeometry width="83" height="29" as="geometry">
            <mxRectangle width="83" height="29" as="alternateBounds" />
          </mxGeometry>
        </mxCell>
        <mxCell id="pX-VzG0IlggwM3JUz6iu-27" value="" style="shape=partialRectangle;html=1;whiteSpace=wrap;connectable=0;strokeColor=inherit;overflow=hidden;fillColor=none;top=0;left=0;bottom=0;right=0;pointerEvents=1;fontSize=16;" vertex="1" parent="pX-VzG0IlggwM3JUz6iu-25">
          <mxGeometry x="83" width="84" height="29" as="geometry">
            <mxRectangle width="84" height="29" as="alternateBounds" />
          </mxGeometry>
        </mxCell>
        <mxCell id="pX-VzG0IlggwM3JUz6iu-28" value="" style="shape=partialRectangle;html=1;whiteSpace=wrap;connectable=0;strokeColor=inherit;overflow=hidden;fillColor=none;top=0;left=0;bottom=0;right=0;pointerEvents=1;fontSize=16;" vertex="1" parent="pX-VzG0IlggwM3JUz6iu-25">
          <mxGeometry x="167" width="83" height="29" as="geometry">
            <mxRectangle width="83" height="29" as="alternateBounds" />
          </mxGeometry>
        </mxCell>
        <mxCell id="pX-VzG0IlggwM3JUz6iu-29" value="" style="shape=tableRow;horizontal=0;startSize=0;swimlaneHead=0;swimlaneBody=0;strokeColor=inherit;top=0;left=0;bottom=0;right=0;collapsible=0;dropTarget=0;fillColor=none;points=[[0,0.5],[1,0.5]];portConstraint=eastwest;fontSize=16;" vertex="1" parent="pX-VzG0IlggwM3JUz6iu-24">
          <mxGeometry y="29" width="250" height="31" as="geometry" />
        </mxCell>
        <mxCell id="pX-VzG0IlggwM3JUz6iu-30" value="" style="shape=partialRectangle;html=1;whiteSpace=wrap;connectable=0;strokeColor=inherit;overflow=hidden;fillColor=none;top=0;left=0;bottom=0;right=0;pointerEvents=1;fontSize=16;" vertex="1" parent="pX-VzG0IlggwM3JUz6iu-29">
          <mxGeometry width="83" height="31" as="geometry">
            <mxRectangle width="83" height="31" as="alternateBounds" />
          </mxGeometry>
        </mxCell>
        <mxCell id="pX-VzG0IlggwM3JUz6iu-31" value="" style="shape=partialRectangle;html=1;whiteSpace=wrap;connectable=0;strokeColor=inherit;overflow=hidden;fillColor=none;top=0;left=0;bottom=0;right=0;pointerEvents=1;fontSize=16;" vertex="1" parent="pX-VzG0IlggwM3JUz6iu-29">
          <mxGeometry x="83" width="84" height="31" as="geometry">
            <mxRectangle width="84" height="31" as="alternateBounds" />
          </mxGeometry>
        </mxCell>
        <mxCell id="pX-VzG0IlggwM3JUz6iu-32" value="" style="shape=partialRectangle;html=1;whiteSpace=wrap;connectable=0;strokeColor=inherit;overflow=hidden;fillColor=none;top=0;left=0;bottom=0;right=0;pointerEvents=1;fontSize=16;" vertex="1" parent="pX-VzG0IlggwM3JUz6iu-29">
          <mxGeometry x="167" width="83" height="31" as="geometry">
            <mxRectangle width="83" height="31" as="alternateBounds" />
          </mxGeometry>
        </mxCell>
        <mxCell id="pX-VzG0IlggwM3JUz6iu-33" value="" style="shape=tableRow;horizontal=0;startSize=0;swimlaneHead=0;swimlaneBody=0;strokeColor=inherit;top=0;left=0;bottom=0;right=0;collapsible=0;dropTarget=0;fillColor=none;points=[[0,0.5],[1,0.5]];portConstraint=eastwest;fontSize=16;" vertex="1" parent="pX-VzG0IlggwM3JUz6iu-24">
          <mxGeometry y="60" width="250" height="30" as="geometry" />
        </mxCell>
        <mxCell id="pX-VzG0IlggwM3JUz6iu-34" value="" style="shape=partialRectangle;html=1;whiteSpace=wrap;connectable=0;strokeColor=inherit;overflow=hidden;fillColor=none;top=0;left=0;bottom=0;right=0;pointerEvents=1;fontSize=16;" vertex="1" parent="pX-VzG0IlggwM3JUz6iu-33">
          <mxGeometry width="83" height="30" as="geometry">
            <mxRectangle width="83" height="30" as="alternateBounds" />
          </mxGeometry>
        </mxCell>
        <mxCell id="pX-VzG0IlggwM3JUz6iu-35" value="" style="shape=partialRectangle;html=1;whiteSpace=wrap;connectable=0;strokeColor=inherit;overflow=hidden;fillColor=none;top=0;left=0;bottom=0;right=0;pointerEvents=1;fontSize=16;" vertex="1" parent="pX-VzG0IlggwM3JUz6iu-33">
          <mxGeometry x="83" width="84" height="30" as="geometry">
            <mxRectangle width="84" height="30" as="alternateBounds" />
          </mxGeometry>
        </mxCell>
        <mxCell id="pX-VzG0IlggwM3JUz6iu-36" value="" style="shape=partialRectangle;html=1;whiteSpace=wrap;connectable=0;strokeColor=inherit;overflow=hidden;fillColor=none;top=0;left=0;bottom=0;right=0;pointerEvents=1;fontSize=16;" vertex="1" parent="pX-VzG0IlggwM3JUz6iu-33">
          <mxGeometry x="167" width="83" height="30" as="geometry">
            <mxRectangle width="83" height="30" as="alternateBounds" />
          </mxGeometry>
        </mxCell>
        <mxCell id="pX-VzG0IlggwM3JUz6iu-45" value="Fazer cadastro" style="rounded=0;whiteSpace=wrap;html=1;shadow=1;fillColor=#dae8fc;strokeColor=#6c8ebf;" vertex="1" parent="1">
          <mxGeometry x="-400" y="-630" width="130" height="20" as="geometry" />
        </mxCell>
        <mxCell id="pX-VzG0IlggwM3JUz6iu-46" value="" style="shape=flexArrow;endArrow=classic;html=1;rounded=0;" edge="1" parent="1">
          <mxGeometry width="50" height="50" relative="1" as="geometry">
            <mxPoint x="-315" y="-570" as="sourcePoint" />
            <mxPoint x="-245" y="-570" as="targetPoint" />
          </mxGeometry>
        </mxCell>
        <mxCell id="pX-VzG0IlggwM3JUz6iu-47" value="" style="shape=flexArrow;endArrow=classic;html=1;rounded=0;" edge="1" parent="1">
          <mxGeometry width="50" height="50" relative="1" as="geometry">
            <mxPoint x="-360" y="-570" as="sourcePoint" />
            <mxPoint x="-430" y="-570" as="targetPoint" />
          </mxGeometry>
        </mxCell>
      </root>
    </mxGraphModel>
  </diagram>
</mxfile>
